<svg xmlns="http://www.w3.org/2000/svg" width="144.508" height="51.114" viewBox="0 0 144.508 51.114"><g transform="translate(-149.492 -59.386)"><path d="M86.288,107.406a24.7,24.7,0,0,1-11.317-2.759,23.358,23.358,0,0,1-7.286-5.8,21.555,21.555,0,0,1-4.161-7.72,20.005,20.005,0,0,1,1.84-15.809l.05-.086a3.825,3.825,0,0,1,4.317-1.726,3.776,3.776,0,0,1,2.929,3.562,17.134,17.134,0,0,0,9.595,14.674,19.225,19.225,0,0,0,18.367-.352,3.971,3.971,0,0,1,4.825.6,3.5,3.5,0,0,1,.654,4.335q-.1.17-.2.34a21.922,21.922,0,0,1-13.591,9.979,24.281,24.281,0,0,1-6.023.758Z" transform="translate(93.425 -6.217)" fill="#fddb8d" stroke="#fddb8d" stroke-width="1"/><path d="M28.286,50a27.824,27.824,0,0,1-5.491-.55,27.5,27.5,0,0,1-9.56-3.876,26.372,26.372,0,0,1-7.562-7.391C1.493,32.011-.357,25.768.321,20.132a18.892,18.892,0,0,1,3.086-8.278,27.371,27.371,0,0,1,5.5-5.766C12.7,2.962,12.358,1.231,13.118.727a4.268,4.268,0,0,1,6.167,5.5,21.554,21.554,0,0,0,1.3,21.97,21.817,21.817,0,0,0,19.992,9.471A4.24,4.24,0,0,1,45,40.481,4.163,4.163,0,0,1,43.395,45.4q-.211.143-.424.282a26.51,26.51,0,0,1-9.853,3.892A27.434,27.434,0,0,1,28.286,50Z" transform="translate(149.816 59.999)" fill="none" stroke="#f786aa" stroke-width="1"/><path d="M142.619,50.756a4.232,4.232,0,0,0-4.411-2.816,21.654,21.654,0,0,1-21.259-31.446,4.206,4.206,0,0,0-.936-5.112,26.085,26.085,0,0,0-4.812,5.536,18.375,18.375,0,0,0-2.7,8.263c-.423,5.561,1.7,11.6,6.15,17.466a26.131,26.131,0,0,0,7.873,6.9,27.7,27.7,0,0,0,9.708,3.364,28.211,28.211,0,0,0,5.5.288,27.808,27.808,0,0,0,4.8-.643c.114-.025.226-.053.339-.08A4.277,4.277,0,0,0,142.619,50.756Z" transform="translate(52.198 49.729)" fill="none" stroke="#001514" stroke-width="1"/><g transform="translate(160.678 60)"><path d="M116.518,9.232a21.612,21.612,0,0,1,1.274-3.014A4.262,4.262,0,0,0,111.636.725c-.593.393-.513,1.535-2.257,3.507Z" transform="translate(-109.379 0)" fill="#fcd48f" stroke="#001514" stroke-width="1"/></g><path d="M139.13,16.536l4.236,2.966a21.613,21.613,0,0,1,1.274-3.014,4.2,4.2,0,0,0-.936-5.107A26.968,26.968,0,0,0,139.13,16.536Z" transform="translate(24.451 49.729)" fill="#fcd48f" stroke="#001514" stroke-width="1"/><text transform="translate(212 93)" fill="#001514" font-size="24" font-family="Avenir-Heavy, Avenir" font-weight="800"><tspan x="0" y="0">Banana</tspan></text></g></svg>